<?xml version="1.0" encoding="UTF-8"?>
<svg id="Capa_1" xmlns="http://www.w3.org/2000/svg" version="1.1" viewBox="0 0 400 400"><defs><style>.st0{fill:#3f617a;}.st1{fill:#0e72b5;}.st2{fill:#bc0255;}.st3{fill:#f57a14;}.st4{fill:#0d4d9b;}</style></defs><rect class="st2" x="157.4" y="173.6" width="22.5" height="22.5" transform="translate(-77.9 228) rotate(-57.5)"/><rect class="st0" x="142.3" y="197.4" width="22.5" height="22.5" transform="translate(-104.9 226.2) rotate(-57.5)"/><rect class="st0" x="196.3" y="165" width="22.5" height="22.5" transform="translate(-52.5 256.8) rotate(-57.5)"/><rect class="st0" x="211.4" y="141.2" width="22.5" height="22.5" transform="translate(-25.4 258.5) rotate(-57.5)"/><rect class="st0" x="187.7" y="126" width="22.5" height="22.5" transform="translate(-23.7 231.5) rotate(-57.5)"/><rect class="st3" x="163.9" y="110.9" width="22.5" height="22.5" transform="translate(-21.9 204.4) rotate(-57.5)"/><rect class="st1" x="109.8" y="143.4" width="22.5" height="22.5" transform="translate(-74.4 173.8) rotate(-57.5)"/><rect class="st0" x="118.5" y="182.3" width="22.5" height="22.5" transform="translate(-103.2 199.1) rotate(-57.5)"/><rect class="st1" x="150.9" y="236.3" width="22.5" height="22.5" transform="translate(-133.8 251.6) rotate(-57.5)"/><rect class="st0" x="166.1" y="212.5" width="22.5" height="22.5" transform="translate(-106.7 253.3) rotate(-57.5)"/><rect class="st0" x="189.8" y="227.7" width="22.5" height="22.5" transform="translate(-108.4 280.4) rotate(-57.5)"/><rect class="st0" x="205" y="203.9" width="22.5" height="22.5" transform="translate(-81.3 282.1) rotate(-57.5)"/><rect class="st0" x="220.1" y="180.1" width="22.5" height="22.5" transform="translate(-54.3 283.9) rotate(-57.5)"/><rect class="st0" x="250.4" y="132.5" width="22.5" height="22.5" transform="translate(0 287.4) rotate(-57.5)"/><rect class="st0" x="226.6" y="117.4" width="22.5" height="22.5" transform="translate(1.6 260.3) rotate(-57.5)"/><rect class="st0" x="179" y="87.1" width="22.5" height="22.5" transform="translate(5.1 206.1) rotate(-57.5)"/><rect class="st3" x="70.9" y="152" width="22.5" height="22.5" transform="translate(-99.7 145) rotate(-57.5)"/><rect class="st0" x="64.4" y="214.7" width="22.5" height="22.5" transform="translate(-155.6 168.6) rotate(-57.5)"/><rect class="st0" x="112" y="245" width="22.5" height="22.5" transform="translate(-159.1 222.7) rotate(-57.5)"/><rect class="st0" x="159.6" y="275.2" width="22.5" height="22.5" transform="translate(-162.6 276.9) rotate(-57.5)"/><rect class="st0" x="174.7" y="251.4" width="22.5" height="22.5" transform="translate(-135.5 278.6) rotate(-57.5)"/><rect class="st3" x="213.6" y="242.8" width="22.5" height="22.5" transform="translate(-110.2 307.5) rotate(-57.5)"/><rect class="st4" x="228.8" y="219" width="22.5" height="22.5" transform="translate(-83.1 309.2) rotate(-57.5)"/><rect class="st1" x="243.9" y="195.2" width="22.5" height="22.5" transform="translate(-56 311) rotate(-57.5)"/><rect class="st0" x="259" y="171.4" width="22.5" height="22.5" transform="translate(-28.9 312.7) rotate(-57.5)"/><rect class="st0" x="289.3" y="123.9" width="22.5" height="22.5" transform="translate(25.2 316.2) rotate(-57.5)"/><rect class="st0" x="265.5" y="108.7" width="22.5" height="22.5" transform="translate(27 289.1) rotate(-57.5)"/><rect class="st0" x="217.9" y="78.5" width="22.5" height="22.5" transform="translate(30.5 234.9) rotate(-57.5)"/><rect class="st1" x="131.4" y="56.9" width="22.5" height="22.5" transform="translate(8.6 152) rotate(-57.5)"/><rect class="st0" x="92.5" y="65.5" width="22.5" height="22.5" transform="translate(-16.7 123.1) rotate(-57.5)"/><rect class="st2" x="32" y="160.7" width="22.5" height="22.5" transform="translate(-125 116.2) rotate(-57.5)"/><rect class="st4" x="25.5" y="223.4" width="22.5" height="22.5" transform="translate(-180.9 139.8) rotate(-57.5)"/><rect class="st0" x="73.1" y="253.6" width="22.5" height="22.5" transform="translate(-184.4 193.9) rotate(-57.5)"/><rect class="st0" x="96.9" y="268.8" width="22.5" height="22.5" transform="translate(-186.2 221) rotate(-57.5)"/><rect class="st0" x="120.7" y="283.9" width="22.5" height="22.5" transform="translate(-187.9 248.1) rotate(-57.5)"/><rect class="st0" x="168.2" y="314.1" width="22.5" height="22.5" transform="translate(-191.4 302.2) rotate(-57.5)"/><rect class="st0" x="183.4" y="290.4" width="22.5" height="22.5" transform="translate(-164.3 304) rotate(-57.5)"/><rect class="st4" x="222.3" y="281.7" width="22.5" height="22.5" transform="translate(-139 332.8) rotate(-57.5)"/><rect class="st0" x="252.5" y="234.1" width="22.5" height="22.5" transform="translate(-84.8 336.3) rotate(-57.5)"/><rect class="st0" x="267.7" y="210.3" width="22.5" height="22.5" transform="translate(-57.7 338) rotate(-57.5)"/><rect class="st2" x="282.8" y="186.6" width="22.5" height="22.5" transform="translate(-30.7 339.8) rotate(-57.5)"/><rect class="st0" x="297.9" y="162.8" width="22.5" height="22.5" transform="translate(-3.6 341.5) rotate(-57.5)"/><rect class="st0" x="328.2" y="115.2" width="22.5" height="22.5" transform="translate(50.6 345) rotate(-57.5)"/><rect class="st2" x="304.4" y="100.1" width="22.5" height="22.5" transform="translate(52.3 317.9) rotate(-57.5)"/><rect class="st0" x="256.8" y="69.8" width="22.5" height="22.5" transform="translate(55.8 263.8) rotate(-57.5)"/><rect class="st0" x="233" y="54.7" width="22.5" height="22.5" transform="translate(57.5 236.7) rotate(-57.5)"/><rect class="st0" x="209.3" y="39.6" width="22.5" height="22.5" transform="translate(59.3 209.6) rotate(-57.5)"/><rect class="st4" x="161.7" y="9.3" width="22.5" height="22.5" transform="translate(62.8 155.4) rotate(-57.5)"/><rect class="st1" x="83.8" y="26.6" width="22.5" height="22.5" transform="translate(12.1 97.8) rotate(-57.5)"/><rect class="st1" x="34.2" y="262.3" width="22.5" height="22.5" transform="translate(-209.8 165.1) rotate(-57.5)"/><rect class="st3" x="58" y="277.4" width="22.5" height="22.5" transform="translate(-211.5 192.2) rotate(-57.5)"/><rect class="st0" x="105.5" y="307.7" width="22.5" height="22.5" transform="translate(-215 246.3) rotate(-57.5)"/><rect class="st0" x="129.3" y="322.8" width="22.5" height="22.5" transform="translate(-216.7 273.4) rotate(-57.5)"/><rect class="st0" x="176.9" y="353.1" width="22.5" height="22.5" transform="translate(-220.2 327.6) rotate(-57.5)"/><rect class="st1" x="192" y="329.3" width="22.5" height="22.5" transform="translate(-193.1 329.3) rotate(-57.5)"/><rect class="st0" x="215.8" y="344.4" width="22.5" height="22.5" transform="translate(-194.9 356.4) rotate(-57.5)"/><rect class="st0" x="230.9" y="320.6" width="22.5" height="22.5" transform="translate(-167.8 358.1) rotate(-57.5)"/><rect class="st0" x="246.1" y="296.8" width="22.5" height="22.5" transform="translate(-140.7 359.9) rotate(-57.5)"/><rect class="st3" x="261.2" y="273" width="22.5" height="22.5" transform="translate(-113.7 361.6) rotate(-57.5)"/><rect class="st0" x="276.3" y="249.3" width="22.5" height="22.5" transform="translate(-86.6 363.4) rotate(-57.5)"/><rect class="st0" x="306.6" y="201.7" width="22.5" height="22.5" transform="translate(-32.4 366.9) rotate(-57.5)"/><rect class="st0" x="321.7" y="177.9" width="22.5" height="22.5" transform="translate(-5.3 368.6) rotate(-57.5)"/><rect class="st0" x="336.8" y="154.1" width="22.5" height="22.5" transform="translate(21.8 370.3) rotate(-57.5)"/><rect class="st0" x="352" y="130.3" width="22.5" height="22.5" transform="translate(48.8 372.1) rotate(-57.5)"/><rect class="st0" x="200.7" y="368.2" width="22.5" height="22.5" transform="translate(-222 354.7) rotate(-57.5)"/></svg>
